<?xml version="1.0" encoding="UTF-8"?>
<svg xmlns="http://www.w3.org/2000/svg" version="1.1" viewBox="0 0 1035 720" height="720" width="1035"
     preserveAspectRatio="none">
    <g fill-rule="evenodd" fill="none" stroke-width="1" stroke="none" id="Shapes/4_no_border">
        <path fill="#2d1437" id="Combined-Shape" d="m 0,690 c 0,16.40286 13.164172,29.73106 29.503895,29.99598 L 30,720 H 0 Z M 0,270 c 0,16.56854 13.431458,30 30,30 v 0 h 240 c 16.56854,0 30,-13.43146 30,-30 V 270 30 C 300,13.431458 286.56854,0 270,0 v 0 h 72 C 325.59714,0 312.26894,13.164172 312.00402,29.503895 L 312,30 v 345 c 0,16.40286 13.16417,29.73106 29.50389,29.99598 L 342,405 h 139.67788 l 0.71109,0.006 c 23.18607,0.37593 41.91109,19.10328 42.28327,42.29025 l 0.006,0.70399 v 137 c 0,16.40286 13.16417,29.73106 29.5039,29.99598 l 0.4961,0.004 H 945 c 49.20857,0 89.1932,-39.49252 89.9879,-88.51169 L 1035,525 V 720 H 420 c 49.20857,0 89.19317,-39.49252 89.98794,-88.51169 L 510,630 V 450 c 0,-16.40286 -13.16417,-29.73106 -29.5039,-29.99598 L 480,420 H 240 c -16.40286,0 -29.73106,13.16417 -29.99598,29.50389 L 210,450 v 240 c 0,16.40286 13.16417,29.73106 29.50389,29.99598 L 240,720 h -75 c 16.40286,0 29.73106,-13.16417 29.99598,-29.5039 L 195,690 V 448 l 0.006,-0.71108 c 0.37593,-23.18607 19.10328,-41.91109 42.29025,-42.28327 L 238,405 h 31 l 0.79294,0.007 c 1.84617,0.0334 3.66393,0.18313 5.44626,0.44219 l 0.76166,0.1177 L 276,405 h -6 c 16.40286,0 29.73106,-13.16417 29.99598,-29.5039 L 300,375 v -30 c 0,-16.40286 -13.16417,-29.73106 -29.5039,-29.99598 L 270,315 H 30 C 13.597143,315 0.26894286,328.16417 0.00401914,344.50389 L 0,345 Z M 1035,0 v 195 c 0,-49.20857 -39.49252,-89.19317 -88.51169,-89.98794 L 945,105 H 870.36894 C 846.85818,105 827.75443,86.131354 827.3747,62.711084 L 827.36894,62 827.36947,28.377341 C 826.53502,12.72146 813.69733,0.25159146 797.89245,0.00375968 L 797.41261,0 Z M 0,0 H 30 C 13.431458,0 0,13.431458 0,30 v 0 z"/>
    </g>
</svg>
